<svg t="1653825899079" class="icon" viewBox="0 0 1024 1024" version="1.1" xmlns="http://www.w3.org/2000/svg" p-id="7012" width="26" height="26"><path d="M1019.9 661.556a39.776 39.776 0 0 0-0.546-4.714l-76-418a39.946 39.946 0 0 0-0.814-3.548c-8.93-32.144-27.33-60.26-53.212-81.31a39.956 39.956 0 0 0-8.382-5.242L654.326 43.44C593.166 15.022 525.19 0 457.752 0H40C17.908 0 0 17.908 0 40s17.908 40 40 40h417.752c55.874 0 112.192 12.446 162.864 35.99l221.638 102.99a79.48 79.48 0 0 1 22.746 36.146l38.286 210.568c-32.094-24.982-69.176-43.828-109.478-54.79-13.174-67.478-15.048-73.11-15.864-75.554-6.984-20.96-29.634-32.282-50.596-25.298-20.576 6.86-31.87 28.824-25.66 49.456 1.086 4.272 4.496 20.83 8.426 40.522-78.764 0.468-152.894 30.228-209.326 82.228a5493.632 5493.632 0 0 0-15.752-73.228c13.642-16.506 42.832-46.234 87.542-63.734 20.572-8.05 30.72-31.254 22.67-51.826-8.052-20.572-31.252-30.726-51.828-22.67-89.7 35.108-133.66 105.268-135.488 108.236a40.004 40.004 0 0 0-4.93 29.866C430.852 530.932 462 695.036 462 732.002c0 21.682-18.776 40-41 40-13.502 0-25.83-6.626-33.292-17.81l-171.732-354.622a39.972 39.972 0 0 0-3.368-5.698C191.362 363.896 156.742 346 120 346H40c-22.092 0-40 17.908-40 40s17.908 40 40 40h80c9.95 0 19.374 4.446 25.706 12.01l171 353.108c0.57 1.178 1.196 2.324 1.878 3.44C340.586 830.528 378.872 852 421 852c3.992 0 7.934-0.204 11.826-0.58C485.432 956.948 592.72 1024 712 1024c52.278 0 104.018-13.196 149.622-38.16 19.378-10.606 26.486-34.916 15.88-54.294s-34.914-26.488-54.292-15.88C789.348 934.204 750.892 944 712 944c-87.892 0-167.028-48.958-206.53-126.194C527.986 796 542 765.6 542 732c0-26.738-9.502-86.41-21.58-150.858C563.806 517.71 634.992 480 712 480c127.926 0 232 104.074 232 232 0 24.526-3.798 48.656-11.29 71.726-6.822 21.012 4.68 43.574 25.69 50.398a40 40 0 0 0 12.362 1.966c16.864-0.002 32.548-10.752 38.038-27.658 10.086-31.058 15.2-63.504 15.2-96.432 0-17.172-1.416-34.016-4.1-50.444z" p-id="7013" fill="#f02f02"></path><path d="M722.508 839.528c22.092 0 40-17.908 40-40v-180a40.002 40.002 0 0 0-64.166-31.874l-64 48.522c-17.604 13.346-21.056 38.438-7.708 56.042 13.304 17.546 38.278 21.036 55.876 7.834v99.478c-0.002 22.09 17.906 39.998 39.998 39.998z" p-id="7014" fill="#f02f02"></path></svg>