<?xml version="1.0" standalone="no"?><!DOCTYPE svg PUBLIC "-//W3C//DTD SVG 1.1//EN" "http://www.w3.org/Graphics/SVG/1.1/DTD/svg11.dtd"><svg t="1655435682212" class="icon" viewBox="0 0 1117 1024" version="1.1" xmlns="http://www.w3.org/2000/svg" p-id="2090" width="32.724609375" height="30" xmlns:xlink="http://www.w3.org/1999/xlink"><defs><style type="text/css">@font-face { font-family: feedback-iconfont; src: url("//at.alicdn.com/t/font_1031158_u69w8yhxdu.woff2?t=1630033759944") format("woff2"), url("//at.alicdn.com/t/font_1031158_u69w8yhxdu.woff?t=1630033759944") format("woff"), url("//at.alicdn.com/t/font_1031158_u69w8yhxdu.ttf?t=1630033759944") format("truetype"); }
</style></defs><path d="M1010.446245 760.669908V179.794706a27.660724 27.660724 0 0 0-27.660724-27.660724H43.427337a27.660724 27.660724 0 0 0-27.660724 27.660724v580.875202z" fill="#FFFFFF" p-id="2091"></path><path d="M1025.936251 776.574824H0.829822V179.794706a42.597515 42.597515 0 0 1 42.597515-42.874123h940.464613a42.735818 42.735818 0 0 1 42.044301 42.874123zM31.671529 745.594814h963.284711V179.794706a11.894111 11.894111 0 0 0-11.755808-11.755808H43.427337a11.894111 11.894111 0 0 0-11.755808 11.755808z" fill="#424953" p-id="2092"></path><path d="M62.928147 199.710427h900.909778v513.383036H62.928147z" fill="#01DEE9" p-id="2093"></path><path d="M15.490005 760.669908v83.811994a36.650459 36.650459 0 0 0 32.501351 34.02269h937.421934c16.181524 0 25.724473-16.458131 25.724473-32.639654V760.669908z" fill="#FFFFFF" p-id="2094"></path><path d="M985.41329 893.856294H47.991356A52.002161 52.002161 0 0 1 0 844.343598v-99.301999h1026.627769v100.685035c0 23.649919-15.351702 48.12966-41.214479 48.12966z m-954.294976-117.834684v68.321988a21.851972 21.851972 0 0 0 17.011346 18.532685h937.28363c6.085359 0 10.372771-8.989735 10.372772-17.149649v-69.15181z" fill="#424953" p-id="2095"></path><path d="M669.389519 1008.509995c-8.851432-3.734198-19.50081-8.574824-25.862777-12.032415-10.925986-6.085359-13.830362-6.776877-17.149649-27.660724s-0.829822-67.907077-2.489465-88.790924l-220.594273-1.106429c-1.797947 20.883847 1.936251 67.215559-2.489465 89.897353s-7.053485 21.437061-17.979471 27.660724c-6.223663 3.45759-16.734738 8.159914-25.586169 11.894111H669.389519z" fill="#E5E8EC" p-id="2096"></path><path d="M663.857374 1023.446786c-8.298217-3.595894-19.777418-8.851432-27.660724-12.723933h-0.968125c-15.766613-8.713128-19.50081-14.660184-24.06483-37.618585A324.736899 324.736899 0 0 1 608.535927 912.80389v-17.287953l-190.582388-0.968125v17.702863a329.300918 329.300918 0 0 1-2.489466 59.60886c-4.564019 23.373312-9.54295 29.182064-24.203133 37.341978l-1.383036 0.829821c-7.745003 4.149109-20.192328 9.681253-26.830902 12.58563l-12.309023-27.660724c10.649379-4.564019 19.362507-8.713128 24.203134-11.340897l1.383036-0.829822c6.361967-3.45759 6.361967-3.45759 8.851432-16.181523A327.641275 327.641275 0 0 0 387.250135 912.80389v-34.852512l1.244733-13.830362 248.946515 1.383036 1.106429 13.830362c0.691518 8.851432 0 21.160454 0 34.299298a321.970827 321.970827 0 0 0 1.797947 52.693679 47.853052 47.853052 0 0 0 3.734198 13.830362s3.04268 1.797947 4.97893 3.042679H650.027012c4.564019 2.489465 13.830362 6.776877 24.341437 11.479201z" fill="#424953" p-id="2097"></path><path d="M329.439222 993.019989h367.887628v30.980011h-367.887628z" fill="#424953" p-id="2098"></path><path d="M578.938952 713.646677c0-8.02161 1.936251-82.982172 0-94.876283s-15.904916-26.415991-35.54403-30.288492a966.189087 966.189087 0 0 0-386.28201 0c-19.639114 3.872501-35.54403 17.702863-35.54403 30.288492v94.876283z" fill="#FFDC69" p-id="2099"></path><path d="M594.705565 714.199892l-30.980011-1.244733c0-12.723933 1.659643-82.982172 0-91.556996v-2.627769a30.288493 30.288493 0 0 0-22.958401-15.075094 957.614263 957.614263 0 0 0-380.473258 0 30.011885 30.011885 0 0 0-22.958401 15.075094v2.627769c-1.52134 8.989735 0 76.343598 0 91.556996l-30.98001 1.244733c0-0.829822-2.074554-78.69476 0-96.812534s21.713668-39.278228 48.129659-44.257158a984.860076 984.860076 0 0 1 392.090762 0c26.415991 4.97893 47.299838 24.341437 48.12966 44.257158 1.659643 17.426256 0 92.801729 0 96.812534z" fill="#484F59" p-id="2100"></path><path d="M412.974608 626.377093c2.074554-13.830362 4.010805-56.15127 5.947056-70.119935A46.193409 46.193409 0 0 0 442.571583 525.553755c1.659643-12.862237 3.180983-25.724473 4.564019-38.725014a12.032415 12.032415 0 0 0 7.053485 3.595894 11.4792 11.4792 0 0 0 12.447326-10.096164l6.085359-59.747164a11.06429 11.06429 0 0 0-9.957861-12.309022 10.925986 10.925986 0 0 0-6.638573 1.244733c1.383036-11.340897 2.766072-22.681794 4.010805-34.022691 0.968125-15.628309 8.713128-57.119395-21.298758-83.950297-43.427337-42.597515-138.30362-42.597515-182.284171 0C226.126418 318.098325 233.871421 359.589411 235.116153 375.21772c1.244733 11.340897 2.627769 22.681794 3.872502 34.022691a10.372771 10.372771 0 0 0-6.50027-1.244733 11.202593 11.202593 0 0 0-10.096165 12.309022l6.223663 59.747164a11.340897 11.340897 0 0 0 12.309022 10.096164 12.032415 12.032415 0 0 0 7.053485-3.595894l4.56402 38.725013a47.023231 47.023231 0 0 0 23.235008 30.980011c1.936251 13.830362 4.010805 56.15127 5.947055 70.119935l60.300378 53.385198z" fill="#FFFFFF" p-id="2101"></path><path d="M341.886548 695.252296A15.351702 15.351702 0 0 1 331.928687 691.518098l-60.300378-53.5235a16.04322 16.04322 0 0 1-4.97893-9.404647c-0.968125-7.468395-2.074554-21.298757-3.04268-35.820637-0.691518-10.096164-1.383036-20.468936-2.074554-27.660724a58.364127 58.364127 0 0 1-24.203134-38.171799L235.116153 505.084819a26.415991 26.415991 0 0 1-21.298757-23.649919L207.455429 421.82604a26.830902 26.830902 0 0 1 5.808753-19.50081 25.032955 25.032955 0 0 1 8.989735-7.191789c0-2.627769-0.691518-5.393841-0.968126-8.02161l-1.244732-10.234467v-5.947056c-1.936251-20.054025-5.947056-61.960022 26.830902-91.280389a145.495408 145.495408 0 0 1 101.376553-35.820638 146.186926 146.186926 0 0 1 102.068072 36.373852c32.08644 28.767153 27.660724 70.67315 26.277687 90.865479v5.117233c-0.691518 6.50027-1.383036 12.862237-2.074554 18.947596a27.660724 27.660724 0 0 1 8.851432 7.053485 26.692599 26.692599 0 0 1 5.947055 19.639114l-6.223663 59.747164a26.692599 26.692599 0 0 1-21.437061 23.511615c-0.829822 7.330092-1.659643 14.798487-2.627768 22.128579a56.981091 56.981091 0 0 1-23.926527 37.618585c-0.691518 7.330092-1.383036 17.56456-2.212857 27.660724-0.968125 14.660184-1.936251 28.490546-3.04268 35.958941a15.213398 15.213398 0 0 1-6.085359 10.234468l-71.088061 53.5235a15.490005 15.490005 0 0 1-10.787682 3.04268z m-45.640195-76.620205l46.331713 41.491086 55.321448-41.491086c0.691518-7.191788 1.383036-17.56456 2.074554-27.660724 1.106429-14.660184 2.074554-28.628849 3.180983-36.235549a15.075095 15.075095 0 0 1 6.915181-10.787682 34.852512 34.852512 0 0 0 16.181524-19.085899c1.52134-13.830362 3.04268-26.415991 4.564019-39.416532a15.351702 15.351702 0 0 1 10.511075-12.862237 15.075095 15.075095 0 0 1 9.54295 0l4.840627-47.02323a15.490005 15.490005 0 0 1-15.904916-17.287953v-4.840626c1.106429-9.819557 2.351162-19.362507 3.45759-29.182064a50.480821 50.480821 0 0 1 0-5.255538c1.659643-17.426256 4.425716-46.60832-16.596434-65.417612a117.004862 117.004862 0 0 0-80.907618-27.660724 115.76013 115.76013 0 0 0-80.216099 27.660724c-21.575365 19.224203-18.809292 48.267963-17.287953 65.69422v6.085359l1.106429 9.404646c0.968125 8.02161 1.936251 16.04322 2.766073 24.06483a15.213398 15.213398 0 0 1-6.776878 14.52188 15.628309 15.628309 0 0 1-9.128039 2.627769l4.840627 47.02323a15.075095 15.075095 0 0 1 9.54295 0 15.213398 15.213398 0 0 1 10.511075 12.862237l4.564019 38.725013a33.884387 33.884387 0 0 0 16.319827 19.777418 15.075095 15.075095 0 0 1 6.915181 10.925986c1.106429 7.468395 2.074554 21.437061 3.04268 36.235548 2.904376 9.266343 3.595894 19.915721 4.287412 27.10751z" fill="#484F59" p-id="2102"></path><path d="M375.632631 594.15235h-57.672609l-50.895732-25.309562 13.830362-27.799028 44.395461 22.266883h50.342518v30.841707z" fill="#484F59" p-id="2103"></path><path d="M528.458131 15.490005h573.268503v407.165857h-358.206375l-108.015127 108.015127v-108.015127h-107.047001V15.490005z" fill="#FFFFFF" p-id="2104"></path><path d="M620.015127 568.012966v-129.867099h-107.047002V0h604.248515v438.145867H749.882226z m-76.066991-160.84711h107.047002v86.163155l86.163155-86.163155h349.216639V30.980011H543.948136z" fill="#484F59" p-id="2105"></path><path d="M997.860616 145.633712z" fill="#BAE5F8" p-id="2106"></path><path d="M632.324149 130.143706h365.674771v30.980011H632.324149z" fill="#484F59" p-id="2107"></path><path d="M997.860616 225.573204z" fill="#BAE5F8" p-id="2108"></path><path d="M632.324149 210.083198h365.674771v30.980011H632.324149z" fill="#484F59" p-id="2109"></path><path d="M997.860616 305.512696z" fill="#BAE5F8" p-id="2110"></path><path d="M632.324149 290.02269h365.674771v30.980011H632.324149z" fill="#484F59" p-id="2111"></path></svg>